<?xml version="1.0" standalone="no"?>
<!DOCTYPE svg PUBLIC "-//W3C//DTD SVG 20010904//EN"
 "http://www.w3.org/TR/2001/REC-SVG-20010904/DTD/svg10.dtd">
<svg version="1.0" xmlns="http://www.w3.org/2000/svg"
 width="75.000000pt" height="75.000000pt" viewBox="0 0 75.000000 75.000000"
 preserveAspectRatio="xMidYMid meet">
<metadata>
Created by potrace 1.14, written by Peter Selinger 2001-2017
</metadata>
<g transform="translate(0.000000,75.000000) scale(0.100000,-0.100000)"
fill="#000000" stroke="none">
<path d="M290 653 c-88 -30 -165 -109 -191 -193 -39 -133 24 -292 141 -356
109 -59 265 -39 349 45 93 93 117 257 52 366 -14 25 -16 36 -8 45 9 10 9 11
-1 6 -7 -5 -27 5 -48 23 -81 72 -198 97 -294 64z m158 -163 c17 -11 32 -21 32
-23 0 -2 -24 -28 -53 -59 l-52 -56 -43 30 c-44 31 -55 26 -22 -10 11 -12 20
-25 20 -29 0 -4 13 -23 28 -41 l27 -32 43 62 c70 103 71 105 82 88 14 -23 12
-87 -4 -119 -16 -30 -59 -63 -88 -68 -10 -2 -21 -4 -25 -5 -4 -1 -25 1 -45 5
-40 8 -97 64 -99 97 -1 11 -2 30 -3 43 -4 38 32 95 72 116 48 26 89 26 130 1z"/>
</g>
</svg>
